<?xml version="1.0" standalone="no"?>
<!DOCTYPE svg PUBLIC "-//W3C//DTD SVG 20010904//EN"
 "http://www.w3.org/TR/2001/REC-SVG-20010904/DTD/svg10.dtd">
<svg version="1.0" xmlns="http://www.w3.org/2000/svg"
 width="2048.000000pt" height="2048.000000pt" viewBox="0 0 2048.000000 2048.000000"
 preserveAspectRatio="xMidYMid meet">
<metadata>
Created by potrace 1.16, written by Peter Selinger 2001-2019
</metadata>
<g transform="translate(0.000000,2048.000000) scale(0.100000,-0.100000)"
fill="#000000" stroke="none">
<path d="M0 10240 l0 -10240 10240 0 10240 0 0 10240 0 10240 -10240 0 -10240
0 0 -10240z m11340 8840 c154 -21 187 -27 260 -49 41 -12 87 -28 102 -36 14
-8 35 -15 47 -15 11 0 67 -22 125 -50 489 -230 759 -610 770 -1082 2 -67 0
-139 -5 -158 -4 -19 -13 -62 -19 -95 -7 -33 -18 -75 -26 -93 -8 -18 -14 -39
-14 -47 0 -25 -77 -177 -127 -252 -160 -237 -431 -415 -758 -498 -161 -40
-207 -46 -410 -52 -195 -5 -237 -2 -445 33 -53 9 -251 70 -285 88 -16 9 -34
16 -39 16 -18 0 -232 113 -284 150 -87 63 -181 148 -252 228 -61 69 -180 249
-180 272 0 6 -10 30 -22 53 -11 23 -25 56 -29 72 -30 117 -38 163 -44 260 -16
251 59 510 208 715 50 69 230 246 271 267 17 8 42 26 56 38 14 13 36 26 50 30
14 4 32 13 40 20 24 20 134 75 150 75 8 0 29 9 45 20 17 11 40 20 53 20 13 0
36 7 52 15 16 9 51 18 77 22 27 3 57 10 68 16 11 6 40 12 65 13 25 2 83 7 130
12 101 10 265 6 370 -8z m-2825 -219 c160 -43 225 -77 320 -164 172 -158 249
-420 200 -682 -28 -150 -35 -176 -50 -198 -8 -12 -15 -28 -15 -35 0 -24 -52
-133 -92 -194 -42 -62 -45 -73 -25 -85 8 -4 47 -46 87 -93 81 -93 323 -352
465 -498 49 -51 91 -97 93 -101 4 -11 -24 -17 -125 -31 -40 -6 -106 -15 -145
-21 -250 -37 -481 -60 -553 -53 -108 9 -131 20 -207 98 -69 70 -256 290 -352
414 -27 34 -54 62 -60 62 -34 -2 -120 -28 -124 -38 -2 -7 1 -27 8 -45 6 -17
16 -59 22 -92 5 -33 14 -80 18 -105 5 -25 16 -83 24 -130 9 -47 23 -112 32
-145 9 -33 14 -75 12 -93 -3 -30 -8 -35 -53 -51 -78 -27 -296 -111 -342 -132
-23 -11 -46 -19 -50 -19 -4 0 -91 -32 -193 -71 -239 -91 -229 -95 -250 86 -6
50 -15 131 -21 180 -5 50 -12 97 -15 105 -4 8 -10 40 -14 70 -5 30 -16 98 -24
150 -9 52 -19 111 -22 130 -6 42 -29 179 -45 270 -6 36 -15 88 -20 115 -22
127 -31 183 -39 225 -4 25 -11 63 -14 85 -4 22 -11 63 -16 90 -5 28 -14 79
-20 115 -6 36 -15 85 -20 110 -16 74 -50 275 -70 414 -12 89 -12 89 55 106 22
6 71 20 108 31 37 12 70 19 73 16 3 -2 35 6 72 19 37 13 77 24 88 24 12 0 41
7 64 15 23 8 64 17 89 20 26 2 61 11 77 20 16 8 44 15 63 15 18 0 54 7 80 15
71 22 183 45 193 39 5 -3 30 2 56 10 26 9 72 18 102 20 30 3 68 10 85 16 16 6
38 9 50 6 11 -2 47 -1 80 4 89 13 279 3 360 -19z m4998 -442 c27 -14 179 -103
312 -182 134 -80 313 -198 403 -265 63 -47 74 -60 83 -98 6 -24 15 -47 20 -50
5 -3 9 -33 10 -67 0 -34 5 -84 10 -112 5 -27 10 -94 12 -147 1 -57 6 -98 12
-98 6 0 59 27 119 60 61 33 115 60 122 60 7 0 19 6 26 13 7 7 49 32 93 55 l80
41 50 -18 c148 -53 786 -366 793 -388 4 -14 -390 -213 -778 -395 -118 -55
-271 -127 -339 -159 -68 -33 -127 -59 -132 -59 -11 0 -11 -7 1 -50 5 -19 11
-66 14 -105 3 -38 10 -113 16 -165 8 -78 18 -208 21 -290 0 -8 5 -78 11 -155
10 -135 13 -593 4 -602 -2 -2 -48 30 -103 71 -54 42 -118 92 -143 111 -132
101 -434 341 -495 392 l-70 59 -3 192 c-1 106 -5 192 -7 192 -3 0 -35 -14 -72
-31 -290 -133 -321 -142 -461 -124 -73 9 -206 73 -522 250 -164 92 -190 109
-190 127 0 14 88 61 363 197 401 198 577 281 596 281 7 0 28 -11 48 -24 l36
-25 87 44 88 44 -4 98 c-10 298 -29 505 -66 743 -5 36 -11 81 -13 100 -2 19
-9 71 -15 115 -6 44 -15 108 -20 142 -5 35 -13 80 -19 100 -16 66 -21 133 -10
133 6 0 20 -5 32 -11z m-7837 -471 c-4 -24 -14 -93 -21 -153 -8 -61 -18 -131
-24 -155 -5 -25 -12 -88 -16 -140 -4 -52 -11 -109 -16 -126 -5 -18 -11 -65
-14 -105 -4 -81 -22 -284 -30 -339 -15 -100 -23 -236 -14 -246 5 -6 33 -15 62
-18 51 -7 80 -12 342 -62 242 -47 333 -68 525 -124 151 -44 174 -54 229 -98
96 -78 231 -204 231 -216 0 -12 -70 -76 -190 -172 -176 -140 -298 -225 -380
-264 -36 -17 -72 -35 -81 -40 -9 -5 -20 -5 -25 0 -19 19 -754 281 -873 311
-50 12 -54 12 -67 -6 -21 -28 -36 -90 -28 -119 10 -42 132 -184 328 -384 l190
-193 -259 -260 c-143 -143 -290 -287 -327 -320 l-66 -60 -69 83 c-37 46 -80
99 -95 118 -15 19 -73 94 -130 167 -105 134 -173 227 -263 358 -126 183 -308
460 -376 573 -75 124 -87 145 -131 221 -24 40 -54 93 -68 116 -14 23 -49 86
-78 139 -51 92 -53 98 -38 120 47 73 505 547 527 546 17 0 32 -31 119 -240 77
-186 226 -460 250 -460 4 0 10 28 14 63 9 91 28 220 55 382 6 33 19 116 30
185 19 123 45 272 76 440 8 47 15 88 15 91 0 9 469 318 575 378 112 64 120 64
111 9z m10566 -1276 c226 -173 427 -337 427 -347 1 -5 -33 -57 -74 -115 -42
-58 -86 -121 -100 -140 -13 -19 -41 -59 -62 -88 -21 -28 -78 -109 -127 -180
-49 -70 -142 -201 -206 -292 -64 -91 -157 -223 -205 -295 -49 -71 -117 -169
-152 -218 -35 -48 -111 -158 -169 -243 -127 -187 -193 -278 -205 -282 -5 -2
-24 8 -42 23 -17 15 -52 44 -77 64 -24 20 -69 59 -100 87 -30 28 -89 80 -131
115 -186 155 -298 255 -298 265 -1 6 56 80 127 165 70 85 172 210 227 279 54
69 160 202 235 295 74 94 179 226 232 295 53 69 192 247 308 395 117 149 219
280 227 293 9 12 20 22 27 22 6 0 68 -44 138 -98z m-4529 -1906 c69 -16 116
-47 215 -142 82 -79 94 -84 220 -84 40 0 102 -7 139 -16 55 -14 73 -25 117
-68 52 -52 75 -97 111 -218 9 -32 21 -60 25 -63 10 -6 84 -22 161 -34 31 -5
72 -17 90 -27 19 -9 97 -78 174 -153 131 -128 246 -231 258 -231 8 0 100 -56
175 -107 35 -24 66 -43 69 -43 10 0 89 -61 167 -127 41 -35 78 -63 83 -63 6 0
16 -6 22 -13 13 -17 196 -107 266 -132 28 -10 75 -29 105 -42 30 -14 69 -31
85 -38 76 -33 105 -47 170 -84 70 -39 230 -141 315 -200 42 -30 90 -61 130
-86 9 -5 39 -25 66 -42 28 -18 58 -33 66 -33 8 0 23 -9 32 -19 10 -11 44 -29
78 -42 33 -12 62 -28 65 -35 2 -6 19 -15 36 -18 18 -3 52 -20 77 -36 25 -16
51 -30 57 -30 25 0 274 -136 343 -188 63 -47 175 -166 206 -221 15 -25 37 -59
50 -76 95 -129 236 -455 250 -579 2 -22 7 -63 10 -89 4 -28 1 -60 -6 -77 -8
-20 -9 -34 -1 -47 19 -36 -77 -321 -126 -375 -9 -10 -24 -18 -33 -18 -16 0
-30 -26 -30 -57 0 -7 9 -13 20 -13 11 0 20 -7 20 -15 0 -8 -9 -20 -20 -27 -11
-7 -20 -23 -20 -35 0 -30 -114 -238 -160 -290 -23 -27 -47 -15 -54 27 -4 25
-14 43 -26 50 -26 14 -37 7 -45 -29 -7 -34 -39 -66 -58 -58 -11 4 -13 23 -10
84 3 43 8 92 13 110 4 17 6 33 4 36 -2 2 -52 -7 -111 -20 -236 -50 -585 -52
-873 -4 -292 49 -577 141 -915 295 -16 8 -73 33 -125 56 -106 46 -276 136
-455 241 -167 99 -261 142 -314 146 -75 5 -363 21 -402 22 -20 1 -46 10 -58
21 -27 23 -87 33 -196 34 -71 0 -97 -6 -225 -51 -80 -28 -170 -61 -201 -75
-59 -25 -68 -48 -18 -48 37 0 181 -68 267 -127 213 -146 402 -389 402 -517 0
-48 -33 -100 -74 -116 -26 -10 -78 11 -128 50 -20 17 -41 30 -45 30 -17 0 -83
-62 -83 -77 0 -15 188 -303 254 -388 114 -149 245 -290 370 -399 192 -168 273
-254 409 -437 153 -206 213 -257 443 -373 140 -70 245 -112 420 -169 136 -44
360 -97 409 -97 21 0 25 -5 25 -29 0 -17 -4 -32 -8 -35 -5 -3 -9 -20 -10 -37
-1 -50 -94 -229 -201 -389 -54 -80 -112 -173 -131 -208 -36 -68 -99 -132 -130
-132 -28 0 -190 61 -292 110 -90 42 -292 153 -315 171 -6 6 -27 19 -45 28 -50
27 -149 88 -167 104 -9 8 -29 22 -46 31 -32 18 -88 54 -151 98 -22 15 -80 55
-130 90 -112 78 -179 126 -342 248 -498 372 -595 411 -1122 445 -211 13 -403
52 -515 104 -22 11 -65 30 -95 42 -107 46 -291 181 -402 293 -110 112 -212
308 -287 551 -12 39 -26 84 -32 100 -6 17 -17 52 -25 78 -20 64 -43 60 -60 -8
-34 -135 -44 -168 -79 -265 -51 -143 -77 -194 -99 -198 -16 -4 -17 2 -12 70 3
40 11 136 17 213 13 175 10 270 -11 270 -8 0 -17 -15 -22 -38 -9 -45 -31 -89
-53 -107 -24 -20 -31 -4 -50 127 -17 112 -34 148 -57 125 -14 -14 -16 -29 -27
-325 -6 -142 -13 -262 -16 -267 -3 -5 -10 -53 -15 -107 -15 -153 -66 -337
-105 -373 -23 -22 -25 -22 -26 -4 -2 40 4 121 21 269 17 141 14 257 -9 348
-14 58 -21 72 -36 72 -24 0 -77 -91 -112 -190 -14 -38 -29 -77 -34 -87 -5 -9
-16 -56 -24 -104 -9 -47 -20 -95 -26 -106 -10 -18 -21 -54 -53 -173 -15 -54
-24 -81 -64 -190 -27 -71 -97 -169 -114 -159 -10 7 -2 136 12 194 9 36 14 66
30 200 5 41 12 99 16 129 6 48 5 53 -12 49 -11 -2 -21 -15 -25 -33 -24 -105
-165 -398 -331 -690 -47 -82 -116 -206 -153 -275 -106 -197 -143 -236 -131
-137 15 132 86 327 213 590 l96 197 -10 68 c-11 70 -24 114 -53 172 -10 19
-21 51 -25 70 -4 19 -12 41 -17 50 -5 8 -17 37 -26 65 -10 28 -25 51 -34 53
-19 4 -20 -7 -38 -253 -11 -153 -27 -262 -40 -280 -5 -5 -13 -30 -20 -55 -13
-50 -59 -162 -127 -308 -43 -94 -148 -353 -200 -497 -46 -126 -78 -148 -67
-47 3 31 21 165 40 297 41 286 56 488 45 608 -7 74 -17 108 -62 213 -29 68
-58 123 -64 121 -10 -4 -20 -82 -30 -231 -10 -154 -21 -196 -61 -237 -21 -21
-66 -53 -101 -71 -79 -41 -93 -56 -132 -145 -38 -87 -56 -162 -48 -195 4 -14
44 -65 90 -114 115 -124 127 -141 127 -183 0 -68 -9 -69 -106 -9 -101 61 -117
69 -130 60 -15 -12 -44 -105 -43 -142 1 -19 -1 -100 -3 -180 -3 -106 -1 -154
9 -180 23 -59 128 -156 229 -211 51 -27 97 -56 104 -64 21 -25 34 -18 93 55
99 122 170 155 246 115 41 -21 94 -103 86 -135 -3 -14 -9 -53 -14 -86 -5 -34
-15 -77 -22 -97 -11 -30 -10 -41 1 -62 11 -20 11 -32 0 -64 -12 -36 -11 -42 9
-70 14 -20 20 -38 16 -51 -3 -11 -1 -35 6 -54 11 -31 10 -38 -18 -87 -16 -30
-38 -77 -47 -106 -10 -29 -29 -69 -43 -90 -49 -71 -133 -242 -133 -271 0 -17
-17 -51 -45 -90 -42 -57 -44 -64 -38 -107 6 -45 5 -46 -48 -98 -30 -28 -88
-78 -130 -110 -55 -41 -84 -72 -104 -110 -16 -28 -41 -70 -57 -91 -28 -39 -38
-99 -18 -111 5 -3 7 -18 4 -33 -4 -22 3 -36 43 -79 80 -86 148 -164 203 -233
86 -108 201 -230 217 -230 8 0 28 -8 43 -17 27 -16 31 -16 68 1 36 17 42 17
86 2 26 -9 54 -16 63 -16 18 0 152 -47 168 -59 5 -5 24 -11 40 -15 77 -18 281
-134 373 -213 29 -25 72 -72 96 -106 36 -51 45 -73 51 -122 l6 -60 -44 -48
c-24 -26 -49 -47 -53 -47 -5 0 -39 30 -74 66 -148 150 -447 356 -492 339 -7
-3 -26 -29 -42 -58 -16 -28 -37 -61 -47 -72 -18 -20 -59 -133 -59 -161 0 -16
16 -19 25 -4 3 5 12 10 18 10 7 0 -2 -10 -20 -21 -18 -11 -35 -28 -38 -38 -3
-9 -29 -41 -59 -70 l-53 -53 -31 16 c-48 25 -62 53 -62 121 0 52 -4 65 -24 84
-13 12 -27 37 -30 54 -9 47 -76 199 -97 223 -11 11 -19 25 -19 30 0 27 -158
167 -395 349 -49 37 -119 93 -154 124 -75 65 -136 150 -127 179 4 10 -1 39 -9
63 -21 59 -15 391 9 436 13 27 13 35 -6 89 -11 32 -20 77 -20 99 0 22 -8 66
-19 98 -10 31 -19 62 -19 69 0 6 -15 34 -33 62 -19 28 -44 76 -56 106 -54 130
-126 207 -301 322 -58 39 -126 87 -152 109 -26 21 -51 39 -57 39 -17 0 -14
-205 3 -262 8 -25 12 -48 10 -51 -11 -11 31 -190 68 -287 22 -58 46 -123 54
-145 9 -22 58 -130 111 -240 248 -517 289 -614 348 -821 35 -119 39 -164 14
-148 -26 16 -110 165 -258 456 -161 320 -187 369 -322 615 -156 282 -198 380
-293 672 -16 49 -25 93 -22 107 4 14 0 37 -9 54 -8 16 -15 52 -15 80 0 55 -22
110 -44 110 -17 0 -125 -72 -151 -100 -12 -13 -19 -38 -21 -73 -3 -70 -19
-176 -31 -207 -5 -15 -6 -66 -2 -125 14 -197 26 -245 131 -520 90 -234 109
-297 97 -312 -6 -7 -17 -13 -23 -13 -22 1 -94 77 -144 151 -65 97 -174 314
-206 409 -14 41 -32 92 -40 112 -9 21 -16 62 -16 91 0 30 -6 70 -14 88 -12 30
-24 164 -30 338 -1 55 -14 73 -33 49 -6 -7 -34 -65 -62 -129 -40 -91 -51 -127
-51 -168 0 -29 -4 -60 -9 -69 -14 -28 36 -317 65 -374 8 -15 14 -36 14 -47 0
-26 80 -233 136 -350 24 -51 44 -95 44 -97 0 -3 30 -60 67 -127 112 -207 243
-398 373 -547 79 -89 181 -243 170 -254 -5 -5 -43 13 -92 45 -112 72 -310 271
-428 429 -223 299 -338 506 -545 980 -50 114 -140 301 -157 323 -8 11 -20 16
-30 12 -21 -8 -59 -97 -66 -151 -5 -44 17 -168 48 -268 10 -34 23 -81 28 -106
18 -82 135 -409 212 -595 16 -38 61 -146 99 -240 83 -200 135 -279 249 -383
75 -69 98 -102 72 -102 -22 0 -148 73 -333 193 -59 38 -110 67 -113 64 -3 -3
12 -28 33 -56 32 -42 159 -249 239 -388 49 -87 -31 -29 -204 147 -213 216
-475 559 -669 875 -7 11 -27 44 -45 74 -18 30 -43 71 -55 90 -13 20 -46 79
-75 131 -29 52 -60 109 -70 125 -40 69 -208 414 -208 427 0 7 -11 31 -25 53
-13 22 -25 47 -25 56 0 9 -11 36 -24 61 -13 25 -27 60 -31 79 -4 19 -16 48
-26 65 -10 17 -19 39 -19 48 0 9 -9 34 -20 56 -11 22 -20 49 -20 60 0 11 -9
39 -21 62 -11 22 -24 61 -29 87 -8 45 -35 129 -52 164 -4 9 -11 39 -15 65 -3
26 -10 53 -16 60 -5 7 -18 53 -28 104 -11 50 -24 97 -30 104 -6 7 -13 46 -16
86 -3 40 -12 88 -19 107 -8 18 -14 50 -14 71 0 21 -7 53 -15 73 -8 19 -14 55
-13 79 0 25 -5 54 -11 66 -6 12 -12 57 -13 99 -1 43 -7 94 -14 113 -8 19 -13
58 -12 85 0 28 -4 97 -10 155 -6 58 -14 170 -18 250 -3 80 -10 150 -16 157 -6
7 -6 22 -1 35 7 22 13 145 13 272 0 32 4 64 10 71 6 7 13 58 16 114 3 56 12
121 20 143 8 22 14 51 14 63 0 55 118 136 238 164 46 11 56 11 77 -3 33 -22
77 -112 112 -226 20 -68 37 -103 63 -133 l36 -40 58 38 c58 38 58 38 52 79 -5
29 -2 47 8 61 19 25 20 62 2 93 -11 21 -8 32 26 102 43 87 107 153 159 164 91
18 134 0 176 -73 70 -122 111 -156 140 -118 20 25 43 112 43 163 0 28 7 68 15
87 8 20 15 47 15 61 0 33 40 78 95 107 l47 24 48 -53 c27 -28 79 -102 115
-162 55 -92 70 -110 91 -110 27 0 26 -13 28 230 1 127 4 149 22 180 11 20 29
36 42 38 22 3 131 -58 196 -110 16 -13 55 -41 86 -63 32 -22 73 -53 93 -68 44
-35 65 -27 101 36 20 36 25 60 30 169 4 75 12 140 21 162 8 19 15 49 15 65 0
21 6 32 20 36 40 13 187 -118 263 -233 56 -84 79 -106 106 -97 28 9 67 61 86
115 8 24 21 50 27 58 7 8 16 37 20 66 21 146 27 171 49 188 11 10 29 18 39 18
23 0 87 -73 125 -141 67 -125 94 -159 124 -159 16 0 31 6 33 13 6 15 -9 244
-17 256 -9 16 13 59 34 66 31 10 74 -19 131 -87 56 -68 79 -84 106 -74 22 9
15 76 -21 181 -14 43 -28 97 -32 120 -5 38 -3 45 20 60 35 22 59 13 128 -46
31 -27 63 -49 71 -49 27 0 76 69 133 190 23 49 26 64 22 140 -3 47 -11 119
-20 160 -9 47 -12 81 -6 92 15 27 60 58 86 58 28 0 126 -53 165 -88 24 -22 31
-24 54 -13 25 11 26 14 20 62 -6 44 -34 135 -80 254 -24 62 -20 100 10 124 15
12 34 21 43 21 9 0 62 -27 116 -61 58 -35 113 -62 130 -63 26 -1 30 3 33 28 4
33 -4 55 -70 196 -62 131 -68 162 -37 184 13 9 33 16 44 16 23 0 102 -47 124
-73 17 -21 45 -22 62 -1 11 14 10 21 -4 46 -9 16 -17 35 -17 41 0 23 -52 110
-113 188 -34 44 -70 92 -79 107 -22 34 -23 100 -2 130 20 29 85 62 123 62 31
0 145 -44 172 -67 8 -7 22 -13 30 -13 8 0 31 -9 51 -20 l37 -19 57 25 57 25
-7 57 c-16 141 -105 357 -160 389 -25 15 -66 86 -66 114 0 46 60 105 120 119
42 10 63 9 127 -5 43 -10 82 -23 88 -30 5 -7 24 -15 40 -18 36 -6 112 -33 140
-48 66 -39 287 -61 349 -35 43 18 44 13 -29 126 -24 36 -57 88 -74 116 -30 47
-69 83 -168 153 -105 75 -62 175 98 230 l56 19 69 -27 c38 -15 78 -32 89 -38
11 -6 40 -21 65 -33 25 -13 52 -29 60 -35 8 -7 31 -18 50 -24 19 -5 58 -17 85
-26 102 -33 124 -37 149 -31 32 8 30 19 -21 151 -41 105 -62 147 -103 208 -46
69 -83 155 -76 180 6 25 70 72 84 63 5 -3 42 -10 83 -16 40 -6 78 -15 85 -21
7 -5 34 -14 61 -19 60 -11 168 -37 208 -51 17 -6 61 -18 100 -28 l69 -19 66
25 c36 14 79 29 95 33 46 12 219 76 254 94 20 11 57 16 114 16 75 0 92 4 159
34 96 45 202 73 325 86 144 16 208 41 341 132 52 36 165 77 212 77 19 1 61 -5
93 -13z m-7280 -123 c18 -21 79 -90 137 -153 58 -63 136 -149 173 -191 l67
-77 -37 -55 c-21 -30 -90 -128 -154 -218 -63 -90 -136 -195 -161 -234 -102
-158 -218 -346 -273 -445 -32 -58 -67 -117 -77 -132 -34 -50 -255 -492 -331
-665 -100 -225 -273 -683 -307 -813 -5 -19 -19 -66 -30 -105 -12 -38 -28 -92
-36 -120 -7 -27 -25 -92 -39 -144 -14 -51 -25 -103 -25 -116 0 -12 -7 -42 -16
-66 -9 -24 -19 -69 -24 -99 -4 -30 -15 -86 -25 -125 -9 -38 -18 -90 -20 -114
-3 -25 -9 -59 -15 -75 -11 -35 -42 -237 -46 -306 -2 -25 -8 -72 -15 -105 -6
-33 -13 -85 -15 -115 -1 -30 -8 -107 -14 -170 -13 -137 -23 -400 -22 -600 0
-248 13 -570 23 -596 5 -14 9 -55 9 -91 0 -36 7 -92 16 -126 8 -33 13 -70 10
-81 -3 -12 -1 -39 5 -61 6 -22 14 -71 19 -110 5 -38 13 -101 19 -140 5 -38 14
-83 20 -98 6 -16 11 -46 11 -68 0 -21 9 -62 20 -91 11 -29 20 -72 20 -94 0
-23 9 -61 20 -85 11 -24 20 -61 20 -81 0 -21 6 -52 14 -70 8 -18 18 -55 24
-83 5 -27 14 -63 20 -80 6 -16 15 -48 20 -70 6 -22 29 -92 50 -155 22 -63 46
-131 53 -150 56 -165 117 -321 130 -334 5 -6 9 -18 9 -28 0 -10 16 -51 35 -92
19 -41 35 -79 35 -83 0 -14 183 -396 253 -528 267 -502 647 -1058 963 -1409
166 -184 177 -198 159 -209 -9 -5 -19 -6 -22 -3 -8 8 -55 -19 -79 -46 -12 -12
-29 -46 -38 -74 -22 -68 -44 -86 -109 -92 -47 -4 -57 -1 -107 33 -152 104
-373 314 -525 499 -22 27 -54 65 -71 85 -45 54 -155 198 -202 266 -52 74 -220
327 -249 375 -59 96 -218 379 -273 485 -20 39 -44 84 -53 100 -30 55 -145 300
-152 325 -4 14 -18 41 -31 60 -13 19 -24 44 -24 55 0 11 -11 37 -25 57 -14 20
-25 46 -25 56 0 10 -11 40 -25 66 -14 26 -25 55 -25 64 0 9 -9 31 -20 47 -11
17 -20 41 -20 55 0 14 -8 39 -18 55 -11 17 -22 48 -26 68 -4 21 -16 53 -27 70
-10 18 -19 42 -19 55 0 13 -6 35 -14 50 -7 15 -17 45 -20 66 -4 22 -14 49 -22
60 -8 11 -14 35 -14 54 0 18 -9 50 -20 72 -11 22 -20 54 -20 73 0 18 -11 61
-25 95 -14 34 -25 76 -25 94 0 18 -9 53 -20 77 -11 24 -20 61 -20 83 0 22 -5
49 -12 61 -7 12 -16 46 -20 75 -4 28 -12 76 -16 105 -4 28 -13 62 -20 74 -7
12 -12 42 -12 67 0 24 -5 57 -11 73 -7 15 -13 51 -14 78 -2 28 -8 77 -14 110
-25 125 -36 236 -67 650 -7 87 -6 865 1 1007 2 48 7 93 12 100 4 7 11 58 15
113 7 112 22 245 38 348 5 38 8 72 5 77 -3 4 1 23 9 41 8 19 17 75 21 124 4
50 14 102 21 117 8 15 14 43 14 62 0 37 13 105 33 166 6 19 14 58 18 85 4 28
13 70 19 95 6 25 16 65 22 90 6 25 23 92 39 150 16 58 33 125 39 150 7 25 16
59 22 75 6 17 18 57 28 90 10 33 23 74 29 90 6 17 36 102 67 190 277 794 639
1461 1201 2215 165 221 172 230 184 230 5 0 24 -17 42 -37z m11685 -375 c133
-160 311 -418 436 -633 32 -55 66 -111 74 -125 43 -68 245 -467 314 -620 196
-434 395 -987 486 -1350 33 -131 73 -296 92 -385 13 -55 31 -135 41 -179 11
-43 19 -90 19 -104 0 -14 6 -59 14 -101 8 -42 19 -110 25 -151 6 -41 16 -109
22 -150 6 -41 13 -95 14 -120 1 -25 12 -133 23 -240 18 -164 37 -525 33 -650
-1 -19 0 -69 0 -110 1 -41 1 -88 1 -105 -1 -16 -6 -127 -11 -245 -5 -118 -14
-262 -21 -320 -6 -58 -15 -148 -21 -200 -26 -252 -51 -412 -109 -705 -132
-662 -357 -1317 -656 -1905 -325 -640 -731 -1196 -1383 -1895 -92 -99 -95
-104 -93 -139 2 -21 -4 -38 -16 -49 -17 -16 -21 -14 -68 36 -28 28 -115 123
-194 211 -102 112 -141 162 -134 171 5 7 61 71 126 141 399 441 751 916 1023
1379 318 542 582 1194 725 1790 52 220 58 247 79 355 68 353 111 701 126 1010
3 52 7 122 9 156 4 50 6 317 4 429 -6 273 -48 787 -68 841 -6 14 -10 44 -11
67 0 23 -7 76 -15 117 -8 41 -19 109 -25 150 -5 41 -19 113 -30 160 -10 47
-28 128 -39 180 -11 52 -34 148 -50 212 -17 65 -30 126 -30 135 0 10 -8 32
-17 48 -9 17 -19 50 -23 75 -4 25 -14 65 -23 90 -9 25 -34 106 -57 180 -38
122 -55 173 -95 280 -7 19 -25 69 -40 110 -15 41 -41 109 -58 150 -16 41 -37
95 -47 120 -29 77 -87 214 -104 245 -9 17 -16 34 -16 39 0 36 -280 582 -392
764 -22 37 -49 81 -59 99 -37 64 -199 299 -218 317 -12 11 -21 23 -21 29 0 5
57 82 127 171 70 88 152 193 182 233 31 40 61 72 68 73 7 0 43 -37 81 -82z
m-2818 -3195 c69 -42 168 -100 221 -130 53 -29 106 -64 118 -77 l23 -24 -40
-85 c-39 -82 -103 -167 -126 -167 -17 0 -66 123 -66 165 0 43 -15 53 -43 28
-46 -42 -77 -39 -77 7 0 15 -14 46 -30 69 -17 23 -29 45 -26 50 3 4 -3 21 -14
38 -16 27 -26 32 -79 38 -48 5 -61 11 -61 24 0 9 -7 26 -15 37 -8 10 -15 27
-15 36 0 19 65 68 90 68 8 0 71 -35 140 -77z m576 -285 c93 -38 114 -53 114
-80 0 -64 -164 -293 -215 -300 -19 -3 -20 5 -26 187 -6 158 -4 194 8 213 8 13
20 21 26 18 7 -3 48 -20 93 -38z m409 -153 c39 -13 89 -28 113 -35 52 -13 53
-24 6 -109 -44 -80 -80 -128 -153 -204 -61 -64 -104 -92 -128 -83 -17 7 -16
16 7 171 6 39 15 114 20 168 9 101 21 133 49 122 9 -4 48 -17 86 -30z m401
-86 c36 -6 69 -18 79 -29 15 -17 14 -25 -24 -125 -37 -97 -91 -205 -123 -246
-24 -29 -69 -53 -77 -41 -3 6 -1 73 5 149 7 76 13 170 13 210 1 97 10 102 127
82z m678 -11 c32 -14 40 -37 31 -91 -11 -62 -41 -134 -87 -205 -42 -64 -72
-90 -83 -72 -3 5 1 62 10 127 8 64 15 138 15 163 0 50 5 61 35 78 26 15 48 15
79 0z m-285 -17 c41 -26 -59 -323 -140 -416 -44 -50 -63 -47 -56 8 3 23 11
121 17 217 10 138 15 178 28 188 18 14 130 16 151 3z m-2375 -247 c8 -20 -48
-123 -96 -178 -28 -32 -39 -38 -59 -33 -14 4 -31 17 -38 30 -18 33 3 72 66
124 93 76 116 87 127 57z m166 -175 c0 -59 -109 -199 -155 -199 -32 0 -59 34
-51 64 6 24 116 129 159 152 27 15 47 7 47 -17z m230 -154 c11 -13 5 -27 -35
-86 -48 -70 -118 -139 -141 -139 -19 0 -44 41 -44 70 0 30 25 56 119 124 69
50 82 54 101 31z m680 -217 c19 -30 20 -43 14 -148 -12 -199 -12 -201 -62
-218 -48 -16 -61 -35 -44 -63 17 -27 15 -61 -13 -184 -37 -161 -59 -174 -162
-97 l-52 38 33 50 c124 187 150 223 172 233 20 9 24 16 18 34 -10 33 -21 44
-55 51 -29 5 -30 8 -24 38 23 107 117 298 146 298 5 0 18 -15 29 -32z m-602
-81 c10 -12 4 -93 -14 -174 -6 -30 -28 -29 -47 1 -9 13 -34 45 -57 71 -48 55
-47 58 35 96 48 22 69 24 83 6z m358 -93 c-9 -26 -16 -54 -16 -62 0 -7 -16
-51 -36 -98 -41 -94 -99 -164 -138 -164 -22 0 -104 56 -105 72 -1 3 36 46 80
95 45 48 100 112 122 141 42 55 86 87 101 72 5 -5 1 -29 -8 -56z m525 -51 c26
-31 15 -313 -25 -633 -9 -75 -15 -96 -29 -98 -19 -4 -219 68 -214 77 54 97
115 266 166 465 50 196 69 230 102 189z m261 -184 c56 -162 97 -493 72 -586
-10 -35 -52 -44 -131 -26 -37 8 -72 19 -76 23 -5 4 1 38 12 76 11 38 27 134
36 214 27 262 37 345 42 353 11 18 28 -2 45 -54z m-7994 -3636 c150 -167 462
-538 462 -550 0 -23 -20 -14 -86 39 -133 107 -389 399 -443 506 -54 108 -27
110 67 5z m6855 -1105 c19 -40 65 -138 102 -218 128 -277 641 -1305 658 -1319
12 -9 29 -11 54 -6 101 18 378 147 646 299 62 35 135 75 164 89 l52 27 49 -93
c57 -105 162 -314 162 -321 0 -5 -230 -143 -660 -398 -187 -110 -469 -271
-725 -412 -66 -37 -129 -65 -140 -64 -15 2 -41 53 -116 223 -96 217 -118 265
-178 398 -17 37 -31 69 -31 71 0 3 -48 112 -106 243 -58 131 -114 258 -124
283 -10 25 -31 74 -48 110 -16 36 -59 135 -95 220 -230 542 -269 636 -270 646
-2 9 544 294 563 294 4 0 23 -33 43 -72z m-6148 -2 c94 -18 155 -35 250 -71
39 -14 83 -30 98 -35 16 -5 34 -13 40 -18 7 -5 50 -29 97 -53 259 -132 514
-390 634 -642 39 -81 77 -188 70 -198 -2 -4 -39 -10 -81 -14 -43 -3 -96 -8
-118 -11 -151 -15 -303 -24 -324 -19 -13 3 -79 61 -146 128 -130 131 -207 189
-313 239 -89 41 -145 51 -277 52 -92 0 -122 -4 -175 -24 -72 -26 -151 -80
-216 -148 -49 -51 -118 -206 -128 -286 -3 -27 -12 -61 -20 -76 -10 -21 -11
-40 -4 -81 22 -123 41 -201 57 -222 9 -12 24 -39 35 -59 23 -46 128 -156 181
-189 78 -50 92 -57 165 -86 138 -55 223 -71 287 -54 37 10 43 16 77 89 20 42
41 84 48 93 16 23 4 47 -29 59 -16 6 -37 15 -48 20 -11 5 -81 33 -155 61 -159
62 -221 98 -250 144 -20 32 -20 36 -6 99 37 157 102 237 193 236 15 0 87 -19
158 -41 72 -22 144 -44 160 -49 33 -9 144 -45 190 -62 17 -5 50 -16 75 -24 61
-18 160 -52 185 -63 11 -5 46 -17 77 -27 97 -30 161 -68 195 -113 40 -52 41
-81 9 -176 -33 -96 -122 -325 -179 -460 -178 -418 -178 -419 -377 -416 -63 1
-133 6 -155 11 -22 5 -55 10 -73 10 -18 0 -67 11 -110 24 -42 13 -97 29 -122
35 -112 30 -151 42 -235 74 -105 40 -274 119 -325 151 -19 12 -69 44 -110 71
-375 240 -603 580 -638 951 -12 125 3 335 26 382 5 9 12 34 16 54 12 66 72
191 145 303 52 81 191 224 241 250 19 10 38 22 41 26 11 17 176 96 254 121 77
25 161 43 235 52 66 8 295 -3 375 -18z m4725 -716 c292 -38 526 -245 622 -550
20 -65 23 -95 22 -220 0 -131 -3 -152 -26 -217 -42 -114 -103 -211 -185 -289
-40 -39 -73 -79 -73 -87 0 -18 118 -157 372 -439 98 -108 178 -203 178 -212 0
-19 -60 -40 -205 -71 -66 -14 -138 -30 -160 -35 -22 -6 -125 -24 -229 -40
-186 -30 -190 -31 -215 -12 -14 10 -120 131 -236 270 -115 138 -215 256 -222
263 -15 15 -272 -7 -291 -25 -11 -10 -11 -22 -3 -53 6 -22 18 -100 26 -174 8
-74 21 -178 30 -232 17 -107 11 -133 -28 -142 -89 -19 -632 -61 -672 -51 -30
8 -42 44 -49 143 -4 46 -11 94 -16 109 -6 14 -13 71 -16 127 -4 56 -12 111
-17 122 -6 11 -17 70 -24 130 -8 61 -18 137 -23 170 -4 33 -13 103 -19 155 -6
52 -15 113 -21 135 -5 22 -15 87 -21 145 -15 135 -25 204 -38 260 -5 25 -10
69 -11 98 0 29 -5 62 -11 73 -6 11 -14 64 -18 117 -5 53 -14 110 -20 125 -6
16 -11 45 -11 66 0 21 -7 78 -15 126 -9 48 -13 96 -10 106 8 24 33 27 240 35
272 9 540 27 1010 68 198 17 289 18 385 6z m-2605 -42 c17 0 73 -4 125 -9 52
-5 151 -11 220 -13 69 -2 137 -9 151 -14 26 -10 26 -12 22 -84 -2 -40 -8 -98
-13 -128 -6 -30 -9 -66 -9 -80 1 -38 -20 -220 -27 -231 -3 -6 -7 -48 -9 -95
-2 -47 -11 -136 -19 -197 -8 -62 -20 -168 -26 -237 -6 -69 -15 -136 -20 -150
-5 -14 -12 -59 -14 -100 -7 -121 -24 -247 -36 -271 -7 -11 -9 -33 -7 -48 6
-25 1 -61 -24 -211 -10 -63 -19 -127 -37 -273 -5 -41 -14 -72 -23 -78 -18 -11
-83 -11 -174 1 -38 5 -137 16 -220 25 -82 8 -168 19 -190 25 -22 5 -61 10 -87
10 -34 0 -54 6 -74 23 -26 22 -26 25 -16 73 19 87 42 237 53 334 5 52 14 104
21 114 6 11 12 47 14 80 2 34 8 90 13 126 11 70 37 254 47 335 3 27 10 58 15
67 5 9 8 32 7 50 -2 38 19 207 33 258 5 19 8 51 8 70 -2 32 6 96 32 260 14 89
17 119 30 245 7 70 17 124 24 130 8 7 42 8 96 2 46 -4 98 -9 114 -9z"/>
<path d="M11085 18500 c-292 -24 -506 -191 -576 -449 -43 -158 6 -361 120
-499 33 -40 153 -142 167 -142 3 0 18 -8 32 -18 32 -22 148 -66 214 -81 71
-17 265 -14 324 4 27 9 72 23 99 32 173 55 353 243 380 398 4 22 11 45 15 50
4 6 8 51 8 100 1 70 -5 106 -24 163 -13 41 -31 81 -39 89 -8 8 -15 21 -15 30
0 22 -125 149 -192 194 -68 47 -202 109 -233 109 -12 0 -35 4 -51 9 -46 15
-131 19 -229 11z"/>
<path d="M7965 18321 c-11 -5 -40 -10 -65 -11 -25 0 -63 -5 -85 -11 -22 -6
-67 -16 -100 -24 -33 -8 -73 -19 -89 -25 -27 -10 -28 -12 -22 -58 4 -26 11
-69 17 -97 5 -27 14 -75 20 -105 6 -30 17 -81 25 -112 8 -32 14 -69 14 -82 0
-14 4 -27 9 -30 13 -8 249 23 301 40 25 8 57 14 71 14 74 0 216 73 260 132 88
123 45 280 -96 348 -37 18 -69 24 -144 27 -53 1 -105 -1 -116 -6z"/>
<path d="M12186 13786 c-47 -18 -92 -59 -117 -108 -21 -41 -26 -148 -10 -205
10 -33 71 -128 151 -233 27 -36 50 -75 50 -88 0 -60 -57 -134 -135 -174 -109
-56 -170 -139 -181 -246 -5 -47 -3 -65 14 -98 30 -56 80 -105 137 -134 28 -14
52 -28 53 -32 6 -13 80 -9 115 6 54 22 113 94 172 210 31 60 75 136 99 170 68
97 80 140 81 291 0 165 -13 217 -97 390 -62 127 -111 198 -161 236 -38 28
-116 35 -171 15z"/>
<path d="M13078 13233 c-33 -35 -36 -44 -42 -117 -4 -52 -2 -84 5 -92 6 -7 11
-30 11 -51 0 -24 14 -70 39 -123 22 -47 49 -104 59 -128 30 -64 35 -113 16
-169 -15 -44 -33 -71 -119 -176 -41 -51 -29 -72 118 -227 55 -58 122 -133 149
-167 27 -35 52 -63 56 -63 3 0 21 -13 39 -29 18 -16 48 -32 67 -36 19 -3 38
-13 41 -21 9 -23 70 -16 137 15 42 21 91 59 157 123 80 77 103 107 135 173 34
69 39 87 37 144 -1 35 -6 73 -11 85 -6 12 -25 51 -42 88 -35 77 -95 143 -220
243 -112 89 -198 174 -262 258 -121 156 -152 194 -191 235 -80 83 -124 91
-179 35z"/>
<path d="M14170 12004 c-68 -24 -130 -66 -130 -88 0 -7 -9 -25 -20 -39 -27
-34 -25 -48 9 -91 32 -41 102 -80 159 -91 20 -4 43 -12 51 -18 18 -15 159 -28
285 -27 84 2 104 5 128 23 35 26 36 61 3 126 -32 63 -120 141 -210 186 -96 47
-181 53 -275 19z"/>
<path d="M7242 9407 c-20 -25 -22 -57 -8 -123 9 -38 17 -87 18 -108 3 -41 21
-59 32 -31 3 9 9 57 12 108 5 75 4 99 -10 124 -20 39 -31 47 -44 30z"/>
<path d="M6865 9061 c-13 -23 48 -185 149 -391 57 -118 102 -218 100 -222 -3
-4 -12 -8 -20 -8 -17 0 -147 95 -178 129 -11 12 -23 21 -28 21 -37 0 62 -140
174 -245 163 -154 201 -186 209 -178 5 5 5 46 -1 93 -12 117 -15 269 -5 304 6
22 3 40 -13 70 -11 23 -35 70 -52 106 -67 135 -114 188 -256 285 -71 49 -71
49 -79 36z"/>
<path d="M6650 8028 c-48 -77 -50 -122 -8 -179 46 -65 168 -192 176 -184 3 3
-1 28 -11 55 -10 27 -24 99 -33 160 -18 128 -44 200 -72 200 -12 0 -31 -19
-52 -52z"/>
<path d="M6945 7834 c7 -98 41 -246 68 -299 11 -22 78 -100 150 -172 123 -125
165 -157 153 -115 -20 68 -28 119 -23 158 6 56 -26 167 -71 245 -34 60 -83
109 -187 191 -105 81 -98 82 -90 -8z"/>
<path d="M7506 7503 c-7 -27 0 -378 8 -391 4 -7 11 -12 16 -12 11 0 130 233
130 254 0 35 -37 88 -87 126 -30 22 -56 40 -58 40 -2 0 -6 -8 -9 -17z"/>
<path d="M4817 6706 c-27 -27 -89 -169 -100 -229 -9 -51 -8 -65 13 -125 70
-201 240 -472 394 -626 103 -104 186 -175 186 -159 0 5 -43 101 -96 214 -132
280 -184 397 -228 514 -21 55 -49 125 -62 156 -13 31 -24 65 -24 75 0 21 -52
180 -62 189 -3 3 -13 -1 -21 -9z"/>
<path d="M11330 3245 c-14 -2 -101 -9 -194 -16 -174 -13 -205 -23 -190 -58 3
-9 10 -50 15 -91 30 -284 40 -338 61 -352 7 -5 36 -6 63 -3 28 3 97 10 155 15
267 25 365 73 415 204 20 52 16 146 -9 194 -17 32 -61 74 -95 92 -24 12 -170
22 -221 15z"/>
</g>
</svg>
